<mxfile host="app.diagrams.net" agent="Mozilla/5.0 (Windows NT 10.0; Win64; x64) AppleWebKit/537.36 (KHTML, like Gecko) Chrome/130.0.0.0 Safari/537.36" version="26.2.14">
  <diagram name="Página-1" id="IHVPM5v80Y-Uaolm_7tG">
    <mxGraphModel dx="834" dy="422" grid="1" gridSize="10" guides="1" tooltips="1" connect="1" arrows="1" fold="1" page="1" pageScale="1" pageWidth="827" pageHeight="1169" math="0" shadow="0">
      <root>
        <mxCell id="0" />
        <mxCell id="1" parent="0" />
        <mxCell id="SD1OdpLJb4vjs_2V6Wb9-16" style="edgeStyle=orthogonalEdgeStyle;rounded=0;orthogonalLoop=1;jettySize=auto;html=1;exitX=0.671;exitY=1.01;exitDx=0;exitDy=0;entryX=0.5;entryY=0;entryDx=0;entryDy=0;exitPerimeter=0;" edge="1" parent="1" source="SD1OdpLJb4vjs_2V6Wb9-2" target="SD1OdpLJb4vjs_2V6Wb9-6">
          <mxGeometry relative="1" as="geometry">
            <mxPoint x="560" y="360" as="targetPoint" />
          </mxGeometry>
        </mxCell>
        <mxCell id="SD1OdpLJb4vjs_2V6Wb9-17" value="Notificacion a los diferentes usuarios" style="edgeLabel;html=1;align=center;verticalAlign=middle;resizable=0;points=[];" vertex="1" connectable="0" parent="SD1OdpLJb4vjs_2V6Wb9-16">
          <mxGeometry x="-0.4401" y="1" relative="1" as="geometry">
            <mxPoint x="-81" y="96" as="offset" />
          </mxGeometry>
        </mxCell>
        <mxCell id="SD1OdpLJb4vjs_2V6Wb9-19" style="edgeStyle=orthogonalEdgeStyle;rounded=0;orthogonalLoop=1;jettySize=auto;html=1;exitX=0.067;exitY=0.2;exitDx=0;exitDy=0;entryX=0.5;entryY=1;entryDx=0;entryDy=0;exitPerimeter=0;" edge="1" parent="1" source="SD1OdpLJb4vjs_2V6Wb9-2" target="SD1OdpLJb4vjs_2V6Wb9-3">
          <mxGeometry relative="1" as="geometry" />
        </mxCell>
        <mxCell id="SD1OdpLJb4vjs_2V6Wb9-20" value="Notifica la tarea asignada" style="edgeLabel;html=1;align=center;verticalAlign=middle;resizable=0;points=[];" vertex="1" connectable="0" parent="SD1OdpLJb4vjs_2V6Wb9-19">
          <mxGeometry x="-0.1465" y="-1" relative="1" as="geometry">
            <mxPoint as="offset" />
          </mxGeometry>
        </mxCell>
        <mxCell id="SD1OdpLJb4vjs_2V6Wb9-21" style="edgeStyle=orthogonalEdgeStyle;rounded=0;orthogonalLoop=1;jettySize=auto;html=1;exitX=0;exitY=0.5;exitDx=0;exitDy=0;entryX=0.25;entryY=1;entryDx=0;entryDy=0;" edge="1" parent="1" source="SD1OdpLJb4vjs_2V6Wb9-2" target="SD1OdpLJb4vjs_2V6Wb9-3">
          <mxGeometry relative="1" as="geometry" />
        </mxCell>
        <mxCell id="SD1OdpLJb4vjs_2V6Wb9-22" value="Notifica el resultado de una solicitud de permiso" style="edgeLabel;html=1;align=center;verticalAlign=middle;resizable=0;points=[];" vertex="1" connectable="0" parent="SD1OdpLJb4vjs_2V6Wb9-21">
          <mxGeometry x="-0.5214" y="-1" relative="1" as="geometry">
            <mxPoint x="-56" y="1" as="offset" />
          </mxGeometry>
        </mxCell>
        <mxCell id="SD1OdpLJb4vjs_2V6Wb9-30" style="edgeStyle=orthogonalEdgeStyle;rounded=0;orthogonalLoop=1;jettySize=auto;html=1;exitX=0.948;exitY=0.294;exitDx=0;exitDy=0;entryX=0.25;entryY=1;entryDx=0;entryDy=0;exitPerimeter=0;" edge="1" parent="1" source="SD1OdpLJb4vjs_2V6Wb9-2" target="SD1OdpLJb4vjs_2V6Wb9-4">
          <mxGeometry relative="1" as="geometry">
            <Array as="points">
              <mxPoint x="489" y="269" />
              <mxPoint x="720" y="270" />
            </Array>
          </mxGeometry>
        </mxCell>
        <mxCell id="SD1OdpLJb4vjs_2V6Wb9-31" value="Notifica si hay solicitudes pendientes" style="edgeLabel;html=1;align=center;verticalAlign=middle;resizable=0;points=[];" vertex="1" connectable="0" parent="SD1OdpLJb4vjs_2V6Wb9-30">
          <mxGeometry x="-0.4176" y="1" relative="1" as="geometry">
            <mxPoint x="29" y="1" as="offset" />
          </mxGeometry>
        </mxCell>
        <mxCell id="SD1OdpLJb4vjs_2V6Wb9-2" value="Sistema de Gestión de Tareas y Permisos de Teletrabajo" style="ellipse;whiteSpace=wrap;html=1;" vertex="1" parent="1">
          <mxGeometry x="339" y="240" width="150" height="100" as="geometry" />
        </mxCell>
        <mxCell id="SD1OdpLJb4vjs_2V6Wb9-12" value="Solicitd de Permiso" style="edgeStyle=orthogonalEdgeStyle;rounded=0;orthogonalLoop=1;jettySize=auto;html=1;exitX=1;exitY=0.25;exitDx=0;exitDy=0;entryX=0.449;entryY=0.006;entryDx=0;entryDy=0;entryPerimeter=0;" edge="1" parent="1" source="SD1OdpLJb4vjs_2V6Wb9-3" target="SD1OdpLJb4vjs_2V6Wb9-2">
          <mxGeometry x="-0.351" y="5" relative="1" as="geometry">
            <mxPoint as="offset" />
          </mxGeometry>
        </mxCell>
        <mxCell id="SD1OdpLJb4vjs_2V6Wb9-13" value="Justificación de tareas" style="edgeStyle=orthogonalEdgeStyle;rounded=0;orthogonalLoop=1;jettySize=auto;html=1;exitX=1;exitY=0.75;exitDx=0;exitDy=0;entryX=0.277;entryY=0.081;entryDx=0;entryDy=0;entryPerimeter=0;" edge="1" parent="1" source="SD1OdpLJb4vjs_2V6Wb9-3" target="SD1OdpLJb4vjs_2V6Wb9-2">
          <mxGeometry x="-0.2245" relative="1" as="geometry">
            <mxPoint x="370" y="250" as="targetPoint" />
            <mxPoint as="offset" />
          </mxGeometry>
        </mxCell>
        <mxCell id="SD1OdpLJb4vjs_2V6Wb9-3" value="Empleado" style="rounded=0;whiteSpace=wrap;html=1;" vertex="1" parent="1">
          <mxGeometry x="40" y="140" width="120" height="60" as="geometry" />
        </mxCell>
        <mxCell id="SD1OdpLJb4vjs_2V6Wb9-28" style="edgeStyle=orthogonalEdgeStyle;rounded=0;orthogonalLoop=1;jettySize=auto;html=1;exitX=0;exitY=0.75;exitDx=0;exitDy=0;entryX=1;entryY=0;entryDx=0;entryDy=0;" edge="1" parent="1" source="SD1OdpLJb4vjs_2V6Wb9-4" target="SD1OdpLJb4vjs_2V6Wb9-2">
          <mxGeometry relative="1" as="geometry" />
        </mxCell>
        <mxCell id="SD1OdpLJb4vjs_2V6Wb9-29" value="Aprobación o rechazo de permisos" style="edgeLabel;html=1;align=center;verticalAlign=middle;resizable=0;points=[];" vertex="1" connectable="0" parent="SD1OdpLJb4vjs_2V6Wb9-28">
          <mxGeometry x="-0.0123" relative="1" as="geometry">
            <mxPoint x="35" as="offset" />
          </mxGeometry>
        </mxCell>
        <mxCell id="SD1OdpLJb4vjs_2V6Wb9-4" value="Jefe inmediato (director, subdirector, jefe y coordinador)" style="rounded=0;whiteSpace=wrap;html=1;" vertex="1" parent="1">
          <mxGeometry x="690" y="140" width="120" height="60" as="geometry" />
        </mxCell>
        <mxCell id="SD1OdpLJb4vjs_2V6Wb9-5" value="Administrador del Sistema" style="rounded=0;whiteSpace=wrap;html=1;" vertex="1" parent="1">
          <mxGeometry x="60" y="420" width="120" height="60" as="geometry" />
        </mxCell>
        <mxCell id="SD1OdpLJb4vjs_2V6Wb9-6" value="Servidor de correo interno" style="rounded=0;whiteSpace=wrap;html=1;" vertex="1" parent="1">
          <mxGeometry x="630" y="410" width="120" height="60" as="geometry" />
        </mxCell>
        <mxCell id="SD1OdpLJb4vjs_2V6Wb9-26" style="edgeStyle=orthogonalEdgeStyle;rounded=0;orthogonalLoop=1;jettySize=auto;html=1;exitX=0;exitY=0.25;exitDx=0;exitDy=0;entryX=0.662;entryY=0.063;entryDx=0;entryDy=0;entryPerimeter=0;" edge="1" parent="1" source="SD1OdpLJb4vjs_2V6Wb9-4" target="SD1OdpLJb4vjs_2V6Wb9-2">
          <mxGeometry relative="1" as="geometry" />
        </mxCell>
        <mxCell id="SD1OdpLJb4vjs_2V6Wb9-27" value="Asignación de tareas" style="edgeLabel;html=1;align=center;verticalAlign=middle;resizable=0;points=[];" vertex="1" connectable="0" parent="SD1OdpLJb4vjs_2V6Wb9-26">
          <mxGeometry x="-0.1947" y="-1" relative="1" as="geometry">
            <mxPoint x="28" as="offset" />
          </mxGeometry>
        </mxCell>
        <mxCell id="SD1OdpLJb4vjs_2V6Wb9-32" style="edgeStyle=orthogonalEdgeStyle;rounded=0;orthogonalLoop=1;jettySize=auto;html=1;exitX=1;exitY=0.5;exitDx=0;exitDy=0;entryX=0.667;entryY=1;entryDx=0;entryDy=0;entryPerimeter=0;" edge="1" parent="1" source="SD1OdpLJb4vjs_2V6Wb9-2" target="SD1OdpLJb4vjs_2V6Wb9-4">
          <mxGeometry relative="1" as="geometry" />
        </mxCell>
        <mxCell id="SD1OdpLJb4vjs_2V6Wb9-33" value="Reportes y notificaciones de estado" style="edgeLabel;html=1;align=center;verticalAlign=middle;resizable=0;points=[];" vertex="1" connectable="0" parent="SD1OdpLJb4vjs_2V6Wb9-32">
          <mxGeometry x="-0.1899" relative="1" as="geometry">
            <mxPoint x="-19" as="offset" />
          </mxGeometry>
        </mxCell>
      </root>
    </mxGraphModel>
  </diagram>
</mxfile>
